<svg xmlns="http://www.w3.org/2000/svg" version="1.1" xmlns:xlink="http://www.w3.org/1999/xlink" width="1000" height="1000"><g clip-path="url(#SvgjsClipPath1042)"><rect width="1000" height="1000" fill="#f4a51f"></rect><g transform="matrix(33.333333333333336,0,0,33.333333333333336,100,100)"><svg xmlns="http://www.w3.org/2000/svg" version="1.1" xmlns:xlink="http://www.w3.org/1999/xlink" width="24" height="24"><svg role="img" viewBox="0 0 24 24" xmlns="http://www.w3.org/2000/svg"><title>Zig</title><path d="m23.53 1.02-7.686 3.45h-7.06l-2.98 3.452h7.173L.47 22.98l7.681-3.607h7.065v-.002l2.978-3.45-7.148-.001 12.482-14.9zM0 4.47v14.901h1.883l2.98-3.45H3.451v-8h.942l2.824-3.45H0zm22.117 0-2.98 3.608h1.412v7.844h-.942l-2.98 3.45H24V4.47h-1.883z"></path></svg></svg></g></g><defs><clipPath id="SvgjsClipPath1042"><rect width="1000" height="1000" x="0" y="0" rx="200" ry="200"></rect></clipPath></defs></svg>